<svg id="Layer_1" data-name="Layer 1" xmlns="http://www.w3.org/2000/svg" viewBox="0 0 278.15 80.51"><defs><style>.cls-1{fill:#fff;}.cls-2{fill:#e40712;}</style></defs><title>logo</title><path class="cls-1" d="M53.56,32.48,44.28,57.71h-5L35,44.72l-4.54,13H25.26L16.37,32.48h9.22l-1.34,1.9,4.08,13.87,5.51-15.77h4l4.79,15.77,4.81-13.87-1.34-1.9Z" transform="translate(-9.93 -5.24)"/><path class="cls-1" d="M81.34,32.25H96.61q9.3,0,9.3,7.7,0,6.3-5.53,7.7L107,57.71H96.19l1.5-1.92-4.6-7.17H89.9v7.17l1.5,1.92H81.34L82.78,56V34Zm8.56,5.26V43.8h4.94q3.75,0,3.77-3.23c0-2-1.28-3.06-3.86-3.06Z" transform="translate(-9.93 -5.24)"/><path class="cls-1" d="M32.16,85.74,24.6,71.49V83.72l1.65,2H17.18S17.79,85,19,83.58V62.1l-1.38-1.85h8.84l8.17,15.4,7.84-15.4h9.21l-1.7,2v22l1.32,1.54H40.93L42.55,84V72.21L35.69,85.74Z" transform="translate(-9.93 -5.24)"/><path class="cls-1" d="M60.2,60.24h8.58L81.2,85.71H70.6l1.5-1.94L71,81.15H58.79l-1.32,2.62L59,85.71h-9.2L61.06,62.15Zm.35,16.27H69l-4.2-9.1Z" transform="translate(-9.93 -5.24)"/><path class="cls-1" d="M106.78,60.25v7.56l-1.85-1.49h-7.1V83.86l1.5,1.83H88.66l1.58-1.92V66.32H83.17l-1.83,1.49V60.25Z" transform="translate(-9.93 -5.24)"/><path class="cls-1" d="M109.33,60.25h23.94v6.82l-2-1.58H118.33v5h8.22l1.92-1.58V77l-1.92-1.58h-8.22v5h12.94l2-1.58v6.82H109.33l1.58-1.92V62.17Z" transform="translate(-9.93 -5.24)"/><path class="cls-1" d="M135,60.25h15.92q9.7,0,9.71,7.7,0,6.3-5.77,7.7l6.91,10.06H150.44L152,83.79l-4.8-7.17h-3.32v7.17l1.56,1.92H135L136.45,84V62Zm8.93,5.26V71.8H149q3.92,0,3.93-3.23,0-3.06-4-3.06Z" transform="translate(-9.93 -5.24)"/><path class="cls-1" d="M163.12,60.25h10.67l-1.5,1.83V83.86l1.5,1.83H163.12l1.58-1.92V62.17Z" transform="translate(-9.93 -5.24)"/><path class="cls-1" d="M183.86,60.24h8.58l12.43,25.47h-10.6l1.49-1.94-1.14-2.62H182.45l-1.32,2.62,1.5,1.94h-9.19l11.28-23.56Zm.35,16.27h8.49l-4.2-9.1Z" transform="translate(-9.93 -5.24)"/><rect class="cls-2" width="5.29" height="80.45"/><path class="cls-2" d="M191.75,39.9h18.71l-2.63,3.45,10.81,25.19,11.44-25.32-2.79-3.32h15.93v.16l-21,45.66h-9.24Z" transform="translate(-9.93 -5.24)"/><path class="cls-2" d="M245.44,39.9h19l-2.66,3.29V82.43l2.66,3.29h-19l2.83-3.45V43.35Z" transform="translate(-9.93 -5.24)"/><path class="cls-2" d="M269.05,39.9h19l-2.67,3.29V82.43l2.67,3.29h-19l2.82-3.45V43.35Z" transform="translate(-9.93 -5.24)"/><path class="cls-1" d="M60.2,32.24h8.58L81.2,57.71H70.6l1.5-1.94L71,53.15H58.79l-1.32,2.62L59,57.71h-9.2L61.06,34.15Zm.35,16.27H69l-4.2-9.1Z" transform="translate(-9.93 -5.24)"/></svg>